# xmcd
#
# Track frame offsets:
#	150
#	15537
#	29986
#	43696
#	57028
#	68215
#	89179
#	104712
#	124242
#	141943
#	154011
#	179764
#	191565
#	208765
#	223057
#	238159
#	257664
#	272896
#	290247
#	307328
#
# Disc length: 4331 seconds
# Revision: 2
# Processed by: cddbd v1.5.2PL0 Copyright (c) Steve Scherf et al.
# Submitted via: dBpowerAMP V12.0
#
DISCID=5410e914
DTITLE=The Downchild Blues Band - A Matter of Time
DYEAR=2000
DGENRE=Blues
TTITLE0=It's Been So Long
TTITLE1=	T.V. Mama
TTITLE2=	Flip, Flop And Fly
TTITLE3=Going Dancing
TTITLE4=	Tell Your Mother
TTITLE5=	Dusty Road
TTITLE6=	Annie's Got A Sister
TTITLE7=	Don't Mind Dyin'
TTITLE8=Rock It
TTITLE9=	I Got Everything I Need (Almost)
TTITLE10=	Shotgun Blues
TTITLE11=	Dig Myself A Hole
TTITLE12=Downchild Shuffle
TTITLE13=Lazy Woman
TTITLE14=	Let's Get High
TTITLE15=Tramp
TTITLE16=When I Say Jump
TTITLE17=	Dew Drop Inn
TTITLE18=I Am Mr. Downchild
TTITLE19=It's A Matter Of Time
EXTD=
EXTT0=
EXTT1=
EXTT2=
EXTT3=
EXTT4=
EXTT5=
EXTT6=
EXTT7=
EXTT8=
EXTT9=
EXTT10=
EXTT11=
EXTT12=
EXTT13=
EXTT14=
EXTT15=
EXTT16=
EXTT17=
EXTT18=
EXTT19=
PLAYORDER=
